<svg width="122" height="34" viewBox="0 0 122 34" fill="none" xmlns="http://www.w3.org/2000/svg">
<path d="M60.3008 16.3389V23.6641C60.013 24.0111 59.5687 24.3877 58.9678 24.7939C58.3669 25.1917 57.5924 25.5345 56.6445 25.8223C55.6966 26.11 54.5498 26.2539 53.2041 26.2539C52.0107 26.2539 50.9232 26.0592 49.9414 25.6699C48.9596 25.2721 48.1133 24.6924 47.4023 23.9307C46.6999 23.1689 46.1582 22.238 45.7773 21.1377C45.3965 20.029 45.2061 18.7637 45.2061 17.3418V16.1865C45.2061 14.7646 45.388 13.4993 45.752 12.3906C46.1243 11.2819 46.6533 10.3467 47.3389 9.58496C48.0244 8.82324 48.8411 8.24349 49.7891 7.8457C50.737 7.44792 51.7907 7.24902 52.9502 7.24902C54.5583 7.24902 55.8786 7.51139 56.9111 8.03613C57.9437 8.55241 58.7308 9.27181 59.2725 10.1943C59.8226 11.1084 60.1611 12.1579 60.2881 13.3428H56.5938C56.5007 12.7165 56.3229 12.1706 56.0605 11.7051C55.7982 11.2396 55.4215 10.8757 54.9307 10.6133C54.4482 10.3509 53.8219 10.2197 53.0518 10.2197C52.417 10.2197 51.8499 10.3509 51.3506 10.6133C50.8597 10.8672 50.445 11.2438 50.1064 11.7432C49.7679 12.2425 49.5098 12.8604 49.332 13.5967C49.1543 14.333 49.0654 15.1878 49.0654 16.1611V17.3418C49.0654 18.3066 49.1585 19.1615 49.3447 19.9062C49.5309 20.6426 49.806 21.2646 50.1699 21.7725C50.5423 22.2718 50.9993 22.6484 51.541 22.9023C52.0827 23.1562 52.7132 23.2832 53.4326 23.2832C54.0335 23.2832 54.5329 23.2324 54.9307 23.1309C55.3369 23.0293 55.6628 22.9066 55.9082 22.7627C56.1621 22.6104 56.3568 22.4665 56.4922 22.3311V19.0557H53.0137V16.3389H60.3008ZM67.0039 12.2637V26H63.335V12.2637H67.0039ZM63.1064 8.68359C63.1064 8.15039 63.2926 7.71029 63.665 7.36328C64.0374 7.01628 64.5368 6.84277 65.1631 6.84277C65.7809 6.84277 66.276 7.01628 66.6484 7.36328C67.0293 7.71029 67.2197 8.15039 67.2197 8.68359C67.2197 9.2168 67.0293 9.6569 66.6484 10.0039C66.276 10.3509 65.7809 10.5244 65.1631 10.5244C64.5368 10.5244 64.0374 10.3509 63.665 10.0039C63.2926 9.6569 63.1064 9.2168 63.1064 8.68359ZM76.7539 12.2637V14.8535H68.7559V12.2637H76.7539ZM70.7363 8.87402H74.3926V21.8613C74.3926 22.2591 74.4434 22.5638 74.5449 22.7754C74.6549 22.987 74.8158 23.1351 75.0273 23.2197C75.2389 23.2959 75.5055 23.334 75.8271 23.334C76.0557 23.334 76.2588 23.3255 76.4365 23.3086C76.6227 23.2832 76.7793 23.2578 76.9062 23.2324L76.9189 25.9238C76.6058 26.0254 76.2673 26.1058 75.9033 26.165C75.5394 26.2243 75.1374 26.2539 74.6973 26.2539C73.8932 26.2539 73.1908 26.1227 72.5898 25.8604C71.9974 25.5895 71.5404 25.1579 71.2188 24.5654C70.8971 23.973 70.7363 23.1943 70.7363 22.2295V8.87402ZM82.4033 6.5V26H78.7471V6.5H82.4033ZM81.8828 18.6494H80.8799C80.8883 17.693 81.0153 16.8128 81.2607 16.0088C81.5062 15.1963 81.8574 14.4938 82.3145 13.9014C82.7715 13.3005 83.3174 12.835 83.9521 12.5049C84.5954 12.1748 85.3063 12.0098 86.085 12.0098C86.762 12.0098 87.3757 12.1071 87.9258 12.3018C88.4844 12.488 88.9626 12.7926 89.3604 13.2158C89.7666 13.6305 90.0798 14.1764 90.2998 14.8535C90.5199 15.5306 90.6299 16.3516 90.6299 17.3164V26H86.9482V17.291C86.9482 16.6816 86.8594 16.2035 86.6816 15.8564C86.5124 15.501 86.2627 15.2513 85.9326 15.1074C85.611 14.9551 85.2132 14.8789 84.7393 14.8789C84.2145 14.8789 83.766 14.9762 83.3936 15.1709C83.0296 15.3656 82.7376 15.6364 82.5176 15.9834C82.2975 16.3219 82.1367 16.7197 82.0352 17.1768C81.9336 17.6338 81.8828 18.1247 81.8828 18.6494ZM101.535 22.7119V12.2637H105.191V26H101.751L101.535 22.7119ZM101.941 19.8936L103.021 19.8682C103.021 20.7822 102.915 21.6328 102.703 22.4199C102.492 23.1986 102.174 23.8757 101.751 24.4512C101.328 25.0182 100.795 25.4626 100.151 25.7842C99.5081 26.0973 98.7507 26.2539 97.8789 26.2539C97.2103 26.2539 96.5924 26.1608 96.0254 25.9746C95.4668 25.7799 94.9844 25.4795 94.5781 25.0732C94.1803 24.6585 93.8672 24.1296 93.6387 23.4863C93.4186 22.8346 93.3086 22.0518 93.3086 21.1377V12.2637H96.9648V21.1631C96.9648 21.5693 97.0114 21.9121 97.1045 22.1914C97.2061 22.4707 97.3457 22.6992 97.5234 22.877C97.7012 23.0547 97.9085 23.1816 98.1455 23.2578C98.391 23.334 98.6618 23.3721 98.958 23.3721C99.7113 23.3721 100.304 23.2197 100.735 22.915C101.175 22.6104 101.484 22.1956 101.662 21.6709C101.848 21.1377 101.941 20.5452 101.941 19.8936ZM107.984 6.5H111.641V22.8516L111.272 26H107.984V6.5ZM120.337 18.9922V19.2588C120.337 20.2829 120.227 21.2223 120.007 22.0771C119.795 22.932 119.465 23.6725 119.017 24.2988C118.568 24.9167 118.009 25.3991 117.341 25.7461C116.681 26.0846 115.902 26.2539 115.005 26.2539C114.167 26.2539 113.439 26.0846 112.821 25.7461C112.212 25.4076 111.7 24.9294 111.285 24.3115C110.87 23.6937 110.536 22.9701 110.282 22.1406C110.028 21.3112 109.838 20.4056 109.711 19.4238V18.8398C109.838 17.8581 110.028 16.9525 110.282 16.123C110.536 15.2936 110.87 14.57 111.285 13.9521C111.7 13.3343 112.212 12.8561 112.821 12.5176C113.431 12.179 114.15 12.0098 114.979 12.0098C115.885 12.0098 116.672 12.1833 117.341 12.5303C118.018 12.8688 118.576 13.3512 119.017 13.9775C119.465 14.5954 119.795 15.3317 120.007 16.1865C120.227 17.0329 120.337 17.9681 120.337 18.9922ZM116.681 19.2588V18.9922C116.681 18.4336 116.638 17.9089 116.554 17.418C116.478 16.9186 116.342 16.4827 116.147 16.1104C115.953 15.7295 115.686 15.429 115.348 15.209C115.018 14.9889 114.59 14.8789 114.065 14.8789C113.566 14.8789 113.143 14.9635 112.796 15.1328C112.449 15.3021 112.161 15.5391 111.933 15.8438C111.713 16.1484 111.548 16.5124 111.438 16.9355C111.327 17.3503 111.26 17.8073 111.234 18.3066V19.9697C111.26 20.6383 111.37 21.2308 111.564 21.7471C111.768 22.2549 112.072 22.6569 112.479 22.9531C112.893 23.2409 113.431 23.3848 114.091 23.3848C114.607 23.3848 115.035 23.2832 115.373 23.0801C115.712 22.877 115.974 22.5892 116.16 22.2168C116.355 21.8444 116.49 21.4085 116.566 20.9092C116.643 20.4014 116.681 19.8512 116.681 19.2588Z" fill="white"/>
<path d="M17 2.83331C15.1396 2.83331 13.2974 3.19974 11.5787 3.91169C9.85988 4.62363 8.29816 5.66714 6.98266 6.98263C4.3259 9.6394 2.83334 13.2427 2.83334 17C2.83334 23.2616 6.89918 28.5741 12.5233 30.4583C13.2317 30.5716 13.4583 30.1325 13.4583 29.75C13.4583 29.4241 13.4583 28.5316 13.4583 27.3558C9.53418 28.2058 8.69834 25.4575 8.69834 25.4575C8.04668 23.8141 7.12584 23.375 7.12584 23.375C5.83668 22.4966 7.22501 22.525 7.22501 22.525C8.64168 22.6241 9.39251 23.9841 9.39251 23.9841C10.625 26.1375 12.7075 25.5 13.515 25.16C13.6425 24.2391 14.0108 23.6158 14.4075 23.2616C11.2625 22.9075 7.96168 21.6891 7.96168 16.2916C7.96168 14.7191 8.50001 13.4583 9.42084 12.4525C9.27918 12.0983 8.78334 10.625 9.56251 8.71248C9.56251 8.71248 10.7525 8.32998 13.4583 10.1575C14.5775 9.84581 15.7958 9.68998 17 9.68998C18.2042 9.68998 19.4225 9.84581 20.5417 10.1575C23.2475 8.32998 24.4375 8.71248 24.4375 8.71248C25.2167 10.625 24.7208 12.0983 24.5792 12.4525C25.5 13.4583 26.0383 14.7191 26.0383 16.2916C26.0383 21.7033 22.7233 22.8933 19.5642 23.2475C20.0742 23.6866 20.5417 24.5508 20.5417 25.8683C20.5417 27.7666 20.5417 29.2966 20.5417 29.75C20.5417 30.1325 20.7683 30.5858 21.4908 30.4583C27.115 28.56 31.1667 23.2616 31.1667 17C31.1667 15.1396 30.8003 13.2974 30.0883 11.5786C29.3764 9.85985 28.3329 8.29813 27.0174 6.98263C25.7019 5.66714 24.1401 4.62363 22.4214 3.91169C20.7026 3.19974 18.8604 2.83331 17 2.83331Z" fill="white"/>
</svg>
