<svg width="143" height="34" viewBox="0 0 143 34" fill="none" xmlns="http://www.w3.org/2000/svg">
<path d="M56.5332 23.0293V26H47.2275V23.0293H56.5332ZM48.459 7.51562V26H44.6504V7.51562H48.459ZM62.3477 12.2637V26H58.6787V12.2637H62.3477ZM58.4502 8.68359C58.4502 8.15039 58.6364 7.71029 59.0088 7.36328C59.3812 7.01628 59.8805 6.84277 60.5068 6.84277C61.1247 6.84277 61.6198 7.01628 61.9922 7.36328C62.373 7.71029 62.5635 8.15039 62.5635 8.68359C62.5635 9.2168 62.373 9.6569 61.9922 10.0039C61.6198 10.3509 61.1247 10.5244 60.5068 10.5244C59.8805 10.5244 59.3812 10.3509 59.0088 10.0039C58.6364 9.6569 58.4502 9.2168 58.4502 8.68359ZM68.9492 15.1963V26H65.293V12.2637H68.7207L68.9492 15.1963ZM68.416 18.6494H67.4258C67.4258 17.6338 67.557 16.7197 67.8193 15.9072C68.0817 15.0863 68.4499 14.388 68.9238 13.8125C69.3978 13.2285 69.9606 12.7842 70.6123 12.4795C71.2725 12.1663 72.0088 12.0098 72.8213 12.0098C73.4645 12.0098 74.0527 12.1029 74.5859 12.2891C75.1191 12.4753 75.5762 12.7715 75.957 13.1777C76.3464 13.584 76.6426 14.1214 76.8457 14.79C77.0573 15.4587 77.1631 16.2754 77.1631 17.2402V26H73.4814V17.2275C73.4814 16.6182 73.3968 16.1442 73.2275 15.8057C73.0583 15.4671 72.8086 15.2301 72.4785 15.0947C72.1569 14.9508 71.7591 14.8789 71.2852 14.8789C70.7943 14.8789 70.3669 14.9762 70.0029 15.1709C69.6475 15.3656 69.3512 15.6364 69.1143 15.9834C68.8857 16.3219 68.7122 16.7197 68.5938 17.1768C68.4753 17.6338 68.416 18.1247 68.416 18.6494ZM83.5996 6.4873V26H79.9434V6.4873H83.5996ZM92.2578 12.2637L86.291 19.0684L83.0918 22.3057L81.7588 19.665L84.2979 16.4404L87.8652 12.2637H92.2578ZM88.4619 26L84.3994 19.6523L86.9258 17.4434L92.6768 26H88.4619ZM99.9004 26.2539C98.834 26.2539 97.8776 26.0846 97.0312 25.7461C96.1849 25.3991 95.4655 24.9209 94.873 24.3115C94.2891 23.7021 93.8405 22.9954 93.5273 22.1914C93.2142 21.3789 93.0576 20.5156 93.0576 19.6016V19.0938C93.0576 18.0527 93.2057 17.1006 93.502 16.2373C93.7982 15.374 94.2214 14.625 94.7715 13.9902C95.3301 13.3555 96.0072 12.8688 96.8027 12.5303C97.5983 12.1833 98.4954 12.0098 99.4941 12.0098C100.467 12.0098 101.331 12.1706 102.084 12.4922C102.837 12.8138 103.468 13.2708 103.976 13.8633C104.492 14.4557 104.881 15.1667 105.144 15.9961C105.406 16.8171 105.537 17.7311 105.537 18.7383V20.2617H94.6191V17.8242H101.944V17.5449C101.944 17.0371 101.851 16.5843 101.665 16.1865C101.487 15.7803 101.216 15.4587 100.853 15.2217C100.489 14.9847 100.023 14.8662 99.4561 14.8662C98.9736 14.8662 98.5589 14.972 98.2119 15.1836C97.8649 15.3952 97.5814 15.6914 97.3613 16.0723C97.1497 16.4531 96.9889 16.9017 96.8789 17.418C96.7773 17.9258 96.7266 18.4844 96.7266 19.0938V19.6016C96.7266 20.1517 96.8027 20.6595 96.9551 21.125C97.1159 21.5905 97.3402 21.9925 97.6279 22.3311C97.9242 22.6696 98.2796 22.932 98.6943 23.1182C99.1175 23.3044 99.5957 23.3975 100.129 23.3975C100.789 23.3975 101.403 23.2705 101.97 23.0166C102.545 22.7542 103.04 22.3607 103.455 21.8359L105.232 23.7656C104.945 24.1803 104.551 24.5781 104.052 24.959C103.561 25.3398 102.968 25.653 102.274 25.8984C101.58 26.1354 100.789 26.2539 99.9004 26.2539ZM115.731 23.0039V6.5H119.413V26H116.1L115.731 23.0039ZM107.048 19.2969V19.0303C107.048 17.9808 107.166 17.0286 107.403 16.1738C107.64 15.3105 107.987 14.57 108.444 13.9521C108.901 13.3343 109.464 12.8561 110.133 12.5176C110.801 12.179 111.563 12.0098 112.418 12.0098C113.222 12.0098 113.924 12.179 114.525 12.5176C115.135 12.8561 115.651 13.3385 116.074 13.9648C116.506 14.5827 116.853 15.3148 117.115 16.1611C117.378 16.999 117.568 17.9173 117.687 18.916V19.5C117.568 20.4564 117.378 21.3451 117.115 22.166C116.853 22.987 116.506 23.7064 116.074 24.3242C115.651 24.9336 115.135 25.4076 114.525 25.7461C113.916 26.0846 113.205 26.2539 112.393 26.2539C111.538 26.2539 110.776 26.0804 110.107 25.7334C109.447 25.3864 108.889 24.8997 108.432 24.2734C107.983 23.6471 107.64 22.9108 107.403 22.0645C107.166 21.2181 107.048 20.2956 107.048 19.2969ZM110.704 19.0303V19.2969C110.704 19.8639 110.746 20.3929 110.831 20.8838C110.924 21.3747 111.072 21.8105 111.275 22.1914C111.487 22.5638 111.758 22.8558 112.088 23.0674C112.426 23.2705 112.837 23.3721 113.319 23.3721C113.946 23.3721 114.462 23.2324 114.868 22.9531C115.274 22.6654 115.583 22.2718 115.795 21.7725C116.015 21.2731 116.142 20.6976 116.176 20.0459V18.3828C116.15 17.8496 116.074 17.3714 115.947 16.9482C115.829 16.5166 115.651 16.1484 115.414 15.8438C115.186 15.5391 114.898 15.3021 114.551 15.1328C114.212 14.9635 113.81 14.8789 113.345 14.8789C112.871 14.8789 112.465 14.9889 112.126 15.209C111.787 15.4206 111.512 15.7126 111.301 16.085C111.098 16.4574 110.945 16.8975 110.844 17.4053C110.751 17.9046 110.704 18.4463 110.704 19.0303ZM126.129 12.2637V26H122.46V12.2637H126.129ZM122.231 8.68359C122.231 8.15039 122.418 7.71029 122.79 7.36328C123.162 7.01628 123.662 6.84277 124.288 6.84277C124.906 6.84277 125.401 7.01628 125.773 7.36328C126.154 7.71029 126.345 8.15039 126.345 8.68359C126.345 9.2168 126.154 9.6569 125.773 10.0039C125.401 10.3509 124.906 10.5244 124.288 10.5244C123.662 10.5244 123.162 10.3509 122.79 10.0039C122.418 9.6569 122.231 9.2168 122.231 8.68359ZM132.73 15.1963V26H129.074V12.2637H132.502L132.73 15.1963ZM132.197 18.6494H131.207C131.207 17.6338 131.338 16.7197 131.601 15.9072C131.863 15.0863 132.231 14.388 132.705 13.8125C133.179 13.2285 133.742 12.7842 134.394 12.4795C135.054 12.1663 135.79 12.0098 136.603 12.0098C137.246 12.0098 137.834 12.1029 138.367 12.2891C138.9 12.4753 139.357 12.7715 139.738 13.1777C140.128 13.584 140.424 14.1214 140.627 14.79C140.839 15.4587 140.944 16.2754 140.944 17.2402V26H137.263V17.2275C137.263 16.6182 137.178 16.1442 137.009 15.8057C136.84 15.4671 136.59 15.2301 136.26 15.0947C135.938 14.9508 135.54 14.8789 135.066 14.8789C134.576 14.8789 134.148 14.9762 133.784 15.1709C133.429 15.3656 133.132 15.6364 132.896 15.9834C132.667 16.3219 132.493 16.7197 132.375 17.1768C132.257 17.6338 132.197 18.1247 132.197 18.6494Z" fill="white"/>
<path d="M26.9167 4.25C27.6681 4.25 28.3888 4.54851 28.9201 5.07986C29.4515 5.61122 29.75 6.33189 29.75 7.08333V26.9167C29.75 27.6681 29.4515 28.3888 28.9201 28.9201C28.3888 29.4515 27.6681 29.75 26.9167 29.75H7.08333C6.33189 29.75 5.61122 29.4515 5.07986 28.9201C4.54851 28.3888 4.25 27.6681 4.25 26.9167V7.08333C4.25 6.33189 4.54851 5.61122 5.07986 5.07986C5.61122 4.54851 6.33189 4.25 7.08333 4.25H26.9167ZM26.2083 26.2083V18.7C26.2083 17.4751 25.7218 16.3005 24.8557 15.4343C23.9895 14.5682 22.8149 14.0817 21.59 14.0817C20.3858 14.0817 18.9833 14.8183 18.3033 15.9233V14.3508H14.3508V26.2083H18.3033V19.2242C18.3033 18.1333 19.1817 17.2408 20.2725 17.2408C20.7985 17.2408 21.303 17.4498 21.6749 17.8217C22.0469 18.1937 22.2558 18.6982 22.2558 19.2242V26.2083H26.2083ZM9.74667 12.1267C10.3779 12.1267 10.9832 11.8759 11.4296 11.4296C11.8759 10.9832 12.1267 10.3779 12.1267 9.74667C12.1267 8.42917 11.0642 7.3525 9.74667 7.3525C9.11169 7.3525 8.50273 7.60474 8.05374 8.05374C7.60474 8.50273 7.3525 9.11169 7.3525 9.74667C7.3525 11.0642 8.42917 12.1267 9.74667 12.1267ZM11.7158 26.2083V14.3508H7.79167V26.2083H11.7158Z" fill="white"/>
</svg>
