<svg width="135" height="41" viewBox="0 0 135 41" fill="none" xmlns="http://www.w3.org/2000/svg">
<path d="M3.8584 20.5938L20.7285 27.4297V32.2148L0.757812 22.9619V20.1543L3.8584 20.5938ZM20.7285 14.9785L3.88281 21.9121L0.757812 22.2539V19.4219L20.7285 10.1934V14.9785ZM41.6758 23.0596H32.1787V19.2266H41.6758C43.515 19.2266 45.0042 18.9336 46.1436 18.3477C47.2829 17.7617 48.113 16.9479 48.6338 15.9062C49.1709 14.8646 49.4395 13.6764 49.4395 12.3418C49.4395 11.1211 49.1709 9.97363 48.6338 8.89941C48.113 7.8252 47.2829 6.96257 46.1436 6.31152C45.0042 5.64421 43.515 5.31055 41.6758 5.31055H33.2773V37H28.5654V1.45312H41.6758C44.3613 1.45312 46.6318 1.91699 48.4873 2.84473C50.3428 3.77246 51.7507 5.05827 52.7109 6.70215C53.6712 8.32975 54.1514 10.1934 54.1514 12.293C54.1514 14.5716 53.6712 16.5166 52.7109 18.1279C51.7507 19.7393 50.3428 20.9681 48.4873 21.8145C46.6318 22.6445 44.3613 23.0596 41.6758 23.0596ZM86.3779 19.2998V32.3125C85.9385 32.9635 85.2386 33.696 84.2783 34.5098C83.318 35.3073 81.9915 36.0072 80.2988 36.6094C78.6224 37.1953 76.4577 37.4883 73.8047 37.4883C71.64 37.4883 69.6462 37.1139 67.8232 36.3652C66.0166 35.6003 64.446 34.4935 63.1113 33.0449C61.793 31.5801 60.7676 29.806 60.0352 27.7227C59.319 25.623 58.9609 23.2467 58.9609 20.5938V17.835C58.9609 15.182 59.2702 12.8138 59.8887 10.7305C60.5234 8.64714 61.4512 6.88118 62.6719 5.43262C63.8926 3.96777 65.39 2.861 67.1641 2.1123C68.9382 1.34733 70.9727 0.964844 73.2676 0.964844C75.9857 0.964844 78.2562 1.43685 80.0791 2.38086C81.9183 3.30859 83.3506 4.5944 84.376 6.23828C85.4176 7.88216 86.085 9.75391 86.3779 11.8535H81.666C81.4544 10.5677 81.0312 9.39583 80.3965 8.33789C79.778 7.27995 78.891 6.43359 77.7354 5.79883C76.5798 5.14779 75.0905 4.82227 73.2676 4.82227C71.6237 4.82227 70.1995 5.12337 68.9951 5.72559C67.7907 6.3278 66.7979 7.19043 66.0166 8.31348C65.2354 9.43652 64.6494 10.7956 64.2588 12.3906C63.8844 13.9857 63.6973 15.7842 63.6973 17.7861V20.5938C63.6973 22.6445 63.9333 24.4756 64.4053 26.0869C64.8936 27.6982 65.5853 29.0736 66.4805 30.2129C67.3757 31.3359 68.4417 32.1904 69.6787 32.7764C70.932 33.3623 72.3154 33.6553 73.8291 33.6553C75.5055 33.6553 76.8646 33.5169 77.9062 33.2402C78.9479 32.9473 79.7617 32.6055 80.3477 32.2148C80.9336 31.8079 81.3812 31.4255 81.6904 31.0674V23.1084H73.4629V19.2998H86.3779ZM109.229 1.45312L94.4102 40.0518H90.5283L105.372 1.45312H109.229ZM131.373 21.5703L114.015 14.8076V10.1445L134.864 19.373V22.2295L131.373 21.5703ZM114.015 27.5273L131.422 20.6182L134.864 20.1055V22.9375L114.015 32.1904V27.5273Z" fill="#70FF00"/>
</svg>
